<?xml version="1.0" encoding="UTF-8"?>
<svg width="110px" height="72px" viewBox="0 0 110 72" version="1.1" xmlns="http://www.w3.org/2000/svg" xmlns:xlink="http://www.w3.org/1999/xlink">
    <title>0B04F64A-552B-4064-8853-13E36E82E047</title>
    <defs>
        <filter x="-14.4%" y="-21.9%" width="128.8%" height="143.8%" filterUnits="objectBoundingBox" id="filter-1">
            <feOffset dx="2" dy="2" in="SourceAlpha" result="shadowOffsetOuter1"></feOffset>
            <feGaussianBlur stdDeviation="3" in="shadowOffsetOuter1" result="shadowBlurOuter1"></feGaussianBlur>
            <feColorMatrix values="0 0 0 0 0   0 0 0 0 0   0 0 0 0 0  0 0 0 0.2 0" type="matrix" in="shadowBlurOuter1" result="shadowMatrixOuter1"></feColorMatrix>
            <feMerge>
                <feMergeNode in="shadowMatrixOuter1"></feMergeNode>
                <feMergeNode in="SourceGraphic"></feMergeNode>
            </feMerge>
        </filter>
    </defs>
    <g id="Concept-Desktop" stroke="none" stroke-width="1" fill="none" fill-rule="evenodd">
        <g id="Assets_desktop" transform="translate(-832.000000, -563.000000)" fill="#FFFFFF">
            <g id="Group-5" transform="translate(832.000000, 515.000000)">
                <g id="Logo" filter="url(#filter-1)" transform="translate(0.000000, 48.000000)">
                    <g id="Group-24" transform="translate(0.400000, 0.670000)">
                        <path d="M49.4159796,53.2224813 C49.9353419,54.5107181 50.4235661,55.8297296 50.9309095,57.141149 C51.4391724,58.4549423 51.9435859,59.7702326 52.4487693,61.0852021 C52.953974,62.4001716 53.4577245,63.7156971 53.9626726,65.0307735 C54.467193,66.3446951 54.9724192,67.6583173 55.4764905,68.9699078 C55.62722,68.9486286 55.626835,68.8344908 55.6597483,68.7492884 C56.1621514,67.4484765 56.6643835,66.1476432 57.1643059,64.8458904 C58.5977332,61.1132821 60.0299843,57.3802246 61.4633689,53.6475949 C61.5192081,53.502212 61.5819336,53.3594809 61.6515669,53.191065 C62.2231328,53.1786183 62.7887107,53.187023 63.3768509,53.1865098 C63.3980659,53.284886 63.4245206,53.3628171 63.4298243,53.4421597 C63.4383146,53.5697494 63.4332247,53.6983015 63.4332247,53.8264472 L63.4332675,70.945987 C63.1539004,71.0399363 62.612938,71.056532 61.9598481,70.9954318 C61.9451986,70.9218207 61.920412,70.8425423 61.9154291,70.7620448 C61.9075162,70.634391 61.9125419,70.5058817 61.9125419,70.3777359 C61.9124992,66.0633819 61.9127772,61.7490278 61.9115154,57.4346951 C61.9114726,57.2670492 61.9329229,57.0963664 61.8834568,56.9286135 C61.7359566,56.9460219 61.7423938,57.0683078 61.7104857,57.1507728 C61.3407835,58.1062199 60.9754869,59.0633779 60.6096342,60.0203007 C59.2631415,63.5424052 57.9169483,67.0646167 56.5701134,70.586593 C56.5195994,70.7186737 56.4638457,70.8487656 56.4143368,70.97041 C56.0868722,71.0335846 55.2307851,71.046566 54.6271186,70.9974634 C54.5697396,70.8560155 54.5035922,70.7013937 54.4437966,70.5443767 C52.9043796,66.5019474 51.3656683,62.4592401 49.826679,58.4166611 C49.6596318,57.9778603 49.492435,57.5391236 49.3232493,57.1011355 C49.2935867,57.0243379 49.2536802,56.9514753 49.2185213,56.8767949 C49.1908263,56.8798104 49.1631526,56.8828258 49.135479,56.8858413 L49.1350085,70.9917961 L49.1350085,70.9917961 C48.6214845,71.0467157 48.1447875,71.0169034 47.6462766,71.0164757 C47.6325467,70.9090531 47.6180255,70.8283419 47.6129784,70.7470318 C47.607696,70.6619149 47.611353,70.5762421 47.6113316,70.4908044 L47.611738,53.7032844 L47.611738,53.7032844 C47.6117594,53.5493042 47.6180897,53.395324 47.6212762,53.2505185 C47.9442497,53.1699569 48.8783107,53.1565692 49.4159796,53.2224813 Z M9.82748459,53.1983235 C12.6671361,59.12423 15.4991741,65.034268 18.3332866,70.9485833 C18.0378798,71.037956 17.3208882,71.0557706 16.6390125,70.9949698 C15.8545903,69.3755472 15.1036589,67.7198324 14.3217175,66.093994 C14.1560268,66.0690336 11.8235304,66.0525134 9.41180935,66.0478669 L8.78224019,66.0469263 C8.67747001,66.0468152 8.57289322,66.0467271 8.4686814,66.0466623 L7.54526176,66.0467155 C5.73666115,66.0481102 4.21308355,66.0573259 3.97516776,66.0760082 C3.91314796,66.194295 3.83645727,66.3272312 3.77187113,66.4657706 L1.86369291,70.5670118 L1.86369291,70.5670118 C1.7978236,70.7086094 1.73007232,70.8493302 1.66649133,70.9834641 C1.28881212,71.037956 0.352890535,71.0359243 -2.13861379e-06,70.9804272 C0.00284221782,70.940649 -0.00421520792,70.8961231 0.0101562772,70.860173 C0.198311525,70.3892716 8.35320974,53.4378269 8.50616341,53.1983235 L9.82748459,53.1983235 Z M95.59441,53.1849764 L108.41756,53.1854469 L108.41756,53.1854469 C108.585912,53.1854683 108.754263,53.1924829 108.914617,53.1960758 C108.990046,53.5190279 109.000482,54.0738271 108.94306,54.5961194 C108.870925,54.6071546 108.791411,54.6261883 108.711149,54.6300592 C108.583174,54.636197 108.454729,54.6324758 108.326498,54.6324758 C104.607791,54.6325186 100.889105,54.6323903 97.1703973,54.6329249 C97.0014896,54.6329463 96.8326032,54.6388275 96.6932298,54.6414152 C96.5634159,54.7580338 96.5939981,54.87878 96.5935704,54.9881701 L96.5917018,56.1415379 L96.5917018,56.1415379 L96.5919023,57.2949217 C96.5918809,58.4340544 96.5912821,59.5731871 96.5926294,60.7123198 C96.5928219,60.8657011 96.6028947,61.0190611 96.6089256,61.1874342 C96.7032599,61.2033669 96.7701985,61.2219942 96.8377573,61.2245819 C96.9800607,61.2300568 97.1226421,61.2275974 97.2651379,61.2275974 C100.855614,61.2276829 104.44609,61.2275546 108.036587,61.2280037 C108.205709,61.2280251 108.374852,61.2329225 108.54701,61.2355958 C108.670558,61.4705225 108.608517,61.7010437 108.617136,61.9218984 C108.625947,62.1472655 108.615061,62.3733811 108.612559,62.6232568 C108.511787,62.6431245 108.433258,62.6679324 108.353616,62.6722524 C108.211526,62.6799514 108.068774,62.675717 107.926278,62.675717 C104.335823,62.6758025 100.745347,62.6755245 97.1548496,62.676551 C96.9864765,62.6765938 96.815088,62.6577099 96.6374761,62.713934 C96.5672654,62.8677004 96.5935276,63.0255942 96.5933137,63.1773503 L96.5917739,65.5481855 L96.5917739,65.5481855 L96.591945,69.5157954 C96.6891878,69.5385716 96.7668836,69.5644703 96.8464829,69.5733241 C96.9309581,69.582734 97.0172298,69.5762326 97.1027102,69.5762326 L108.942739,69.5768528 L108.942739,69.5768528 C108.985426,69.5768528 109.028113,69.5739443 109.0708,69.5724045 L109.0708,71.0249083 L95.6066429,71.0224061 L95.6066429,71.0224061 L95.0754967,71.0223847 L95.0754967,71.0223847 C95.0568694,70.9216346 95.0347347,70.8431475 95.0294737,70.763591 C95.0219458,70.6501376 95.0264369,70.5358714 95.0264369,70.4219689 L95.0266294,53.8048109 L95.0266294,53.8048109 C95.0266508,53.620997 95.0306072,53.4371617 95.0329169,53.2366239 C95.1359981,53.2165423 95.2150413,53.1937875 95.2953676,53.187393 C95.3944924,53.1794802 95.4946864,53.1849764 95.59441,53.1849764 Z M9.14471073,55.0738878 C9.10219509,55.1387734 9.07462836,55.1715583 9.05704895,55.2090269 C7.60809529,58.298554 6.15982598,61.3883805 4.71346004,64.4790839 C4.70409291,64.4991013 4.72167232,64.5317366 4.73136024,64.583491 C4.81972776,64.5903346 4.91466083,64.6028882 5.00976499,64.6043211 C6.05295945,64.6201469 7.30448578,64.6280027 8.52418638,64.629091 L9.0839908,64.6291172 C11.3071733,64.6273346 13.2959576,64.6031169 13.53922,64.5640296 L13.5579004,64.508093 C13.5598078,64.4993294 13.5600501,64.4913381 13.5570347,64.4848581 C12.1311139,61.4162039 10.7031828,58.3484906 9.27416103,55.2812906 C9.24665846,55.2222649 9.20512657,55.1697833 9.14471073,55.0738878 Z M9.66496919,50.1278044 C9.90175651,50.1935667 10.1065288,50.3785141 10.3219728,50.5163263 C11.0056234,50.9536301 11.6879268,51.3930083 12.3701019,51.8325576 C12.4892013,51.9093125 12.6052425,51.9907937 12.7177122,52.0667358 C12.7031482,52.1808737 12.6234421,52.1713141 12.5571236,52.1718487 C12.2437312,52.1744578 11.9302745,52.1697315 11.6169676,52.1753347 C11.4394413,52.1784784 11.2832583,52.1202226 11.1270539,52.0463335 C10.6125034,51.8029164 10.0964559,51.5626646 9.58028008,51.3226907 C9.43908879,51.2570566 9.29550226,51.196598 9.14171453,51.1287612 C8.65062463,51.3584697 8.14858503,51.5638408 7.67571612,51.8224848 C7.17164483,52.0981949 6.65303097,52.2354939 6.08155057,52.1754844 C5.92692879,52.1592523 5.77104523,52.1551034 5.61588879,52.1432768 C5.60900246,52.1427422 5.60372008,52.1210352 5.59668404,52.1072412 C5.60694939,52.0083731 5.69632206,51.9824745 5.76289711,51.9395525 C6.64830463,51.3684998 7.53632127,50.8015105 8.41967572,50.2273354 C8.55731691,50.1378558 8.69384602,50.0895659 8.8581985,50.0966448 C9.12821988,50.108343 9.41278384,50.0577648 9.66496919,50.1278044 Z M33.3235112,29.6602764 C33.8575659,29.6602764 34.3706621,29.7566348 34.8557211,29.985274 C36.3234732,30.6771583 36.5788237,32.2904003 36.0605306,33.3850284 C35.8859983,33.7536613 35.6293433,34.052554 35.3024348,34.2931694 C35.201257,34.367636 35.0975556,34.4386593 34.9353631,34.5534815 C35.1211231,34.627948 35.239367,34.6712122 35.3542534,34.7220257 C36.4237956,35.1950443 36.977611,36.0094712 37.013112,37.1848106 C37.049169,38.3776225 36.3708221,39.4664122 35.0576063,39.8693912 C34.6721639,39.9876779 34.2781457,40.0381492 33.8786312,40.0390261 C32.0556981,40.0429611 30.2327437,40.0412502 28.4098106,40.0402023 C28.3254423,40.0401595 28.241074,40.0268787 28.1358114,40.0180035 C28.1163286,39.9374205 28.0874787,39.8594467 28.0805069,39.779548 C28.0706265,39.6665009 28.0763793,39.5520209 28.0763579,39.4381825 C28.0762724,36.3780613 28.0759088,33.3179615 28.0772348,30.2578617 C28.0772989,30.0760154 28.0559342,29.8909825 28.1168419,29.6913643 C28.2187469,29.6803932 28.3144284,29.6612098 28.41011,29.6611243 C30.0479033,29.6595417 31.6857179,29.6607393 33.3235112,29.6602764 Z M74.8257234,29.6637462 C75.1828078,30.0773755 75.5084545,30.5251585 75.8518731,30.9581423 C76.1969812,31.3932219 76.5368711,31.8324076 76.8789638,32.2698825 C77.2210565,32.7073145 77.5628284,33.1450032 77.9051349,33.5822856 C78.2467357,34.0186912 78.5888284,34.4547118 78.9288893,34.888551 C79.1179214,34.8653256 79.168906,34.7145533 79.2516917,34.6091838 C80.2985646,33.2767846 81.3417804,31.9414983 82.386087,30.6070888 C82.6309583,30.294231 82.8764497,29.981865 83.1233099,29.6671894 L83.7365297,29.6673731 C83.8365733,29.6676741 83.935969,29.6682302 84.0353646,29.6692211 C84.0562161,29.6694349 84.0767895,29.6986698 84.1169527,29.7291878 C84.090081,29.800671 84.0478113,29.8634126 84.0005613,29.9231601 L83.8542882,30.099168 L83.8542882,30.099168 C82.47238,31.856467 81.0882905,33.6120551 79.7046715,35.3680282 C79.6694272,35.4127466 79.6370486,35.460288 79.5977194,35.5011355 C79.4599499,35.6442302 79.4228878,35.8148916 79.425283,36.0095482 C79.4322977,36.5789541 79.4276783,37.1485312 79.4276355,37.7180227 C79.4275927,38.3444868 79.428662,38.9709296 79.426609,39.5973724 C79.4261812,39.7230373 79.4137773,39.8486809 79.4041321,40.0255229 C79.2185432,40.0318745 79.0779507,40.0411133 78.9374224,40.0402021 C78.825466,40.0393383 78.7136165,40.0261003 78.6078192,40.018829 C78.5033052,39.8611918 78.5445804,39.7000258 78.5440458,39.5482484 C78.5401321,38.409244 78.5342295,37.2701541 78.5472109,36.1312995 C78.550483,35.8430143 78.466628,35.620406 78.2882248,35.3959371 C76.9326216,33.6904781 75.5875832,31.9766143 74.2394438,30.2651886 C74.1079404,30.0982484 73.9777416,29.9302389 73.8256648,29.7354539 C73.8984632,29.7034603 73.9432886,29.6673391 73.9888196,29.6664195 L74.2599111,29.6633217 L74.2599111,29.6633217 L74.8257234,29.6637462 L74.8257234,29.6637462 Z M29.3617076,35.183453 C29.2513979,35.1835813 29.1411096,35.2030213 29.0158296,35.214912 C29.0020356,35.332493 28.9829591,35.4285809 28.9806067,35.5250966 C28.9401655,37.1904993 28.9601187,38.7865896 29.0248546,39.1500684 C29.163394,39.2443171 29.3247096,39.2069128 29.4770217,39.207255 C30.8297377,39.2103346 32.1824538,39.2115536 33.5351698,39.2068272 C33.7907983,39.205929 34.0472609,39.1850348 34.301649,39.1577461 C34.6015255,39.1255813 34.8850843,39.0285738 35.1500158,38.8853508 C35.5988039,38.6427251 35.8985948,38.2753754 36.0209449,37.7787037 C36.1176316,37.3861825 36.1185084,36.9884431 36.0077496,36.5970126 C35.8155738,35.9177888 35.3355619,35.5293096 34.6883318,35.3187845 C34.3461536,35.207491 33.9899888,35.1840732 33.6334391,35.1834102 C32.2095286,35.180737 30.7856181,35.1814855 29.3617076,35.183453 Z M29.3105948,30.499354 C29.2153837,30.4995037 29.1202368,30.5221302 29.0166637,30.5353682 C29.0027199,30.6080383 28.9833227,30.6621239 28.9832799,30.7162094 C28.9825956,31.8682593 28.9836649,33.0203092 28.9867872,34.1723377 C28.9868728,34.2112819 29.0117235,34.2501833 29.0327033,34.3115187 C29.1244926,34.3229175 29.2200031,34.3449667 29.3155777,34.3451377 C30.5964791,34.3473619 31.8774233,34.3503773 33.1583033,34.344154 C33.5585235,34.3422078 33.9522209,34.2817706 34.3216237,34.112371 C34.7858526,33.899472 35.1126328,33.5574649 35.2634478,33.0679575 C35.3691168,32.7249667 35.3932403,32.3745334 35.3231152,32.0144977 C35.1982843,31.3736407 34.8319397,30.9424748 34.2382819,30.6902894 C33.9047437,30.5486276 33.554396,30.5001025 33.196007,30.4996106 C31.9008625,30.4977714 30.6057393,30.4974292 29.3105948,30.499354 Z M37.2553335,1.2341299 C39.58777,2.56721347 41.0296662,4.57203564 41.5950943,7.1867905 C41.9843862,8.98696871 41.9204417,10.7880451 41.3169034,12.5365117 C40.3019173,15.476956 38.2583007,17.3772428 35.300833,18.2935105 C33.9953375,18.6979651 32.6528013,18.8044895 31.2880876,18.6636832 C29.9828274,18.5289933 28.7439712,18.1836499 27.5949795,17.5504705 C25.1388242,16.1969632 23.6385438,14.1259295 23.079724,11.3904499 C22.707926,9.5704895 22.7973629,7.75668832 23.4384337,6.00505663 C24.5014318,3.10054099 26.5703696,1.25230812 29.5201811,0.370343762 C30.3258637,0.12945297 31.1502125,0.0159664233 31.9476101,0.0029922633 L32.2875688,0.00350732673 C34.0924306,-0.0253211881 35.7385644,0.367221386 37.2553335,1.2341299 Z M81.7823862,0.368682059 C82.8258801,0.621915327 83.8192021,1.00256721 84.7624377,1.51440166 C84.849244,1.56149394 84.9305541,1.61868048 85.022151,1.67601671 L85.022151,3.51362067 C84.8599585,3.56717156 84.7873098,3.42957315 84.6948361,3.35876364 C83.6628266,2.56833196 82.5147331,2.02593671 81.2550682,1.70644919 C79.9993169,1.38794543 78.7249169,1.3196381 77.4384765,1.38503691 C76.7674223,1.4191478 76.1089858,1.53163889 75.466033,1.72851968 C75.0561248,1.85403493 74.6636892,2.0200983 74.2987133,2.24709077 C73.9694737,2.45190582 73.6782801,2.69891572 73.4386912,3.00636285 C72.6805312,3.97919691 72.7056171,5.57336246 73.7453898,6.49589632 C74.0792488,6.79213711 74.4571846,7.01656325 74.8620029,7.19781077 C75.4617343,7.46633513 76.0875783,7.66009354 76.7276227,7.8005577 C77.6865985,8.01099731 78.6497232,8.20259572 79.6111799,8.40172206 C80.600909,8.60666543 81.5877082,8.82206661 82.5422143,9.16315414 C83.01241,9.33116364 83.4694531,9.52721038 83.9039339,9.77394226 C84.2643545,9.97862899 84.6013359,10.2158013 84.9043775,10.4997664 C85.5031252,11.060789 85.8989399,11.7380238 86.0809573,12.5395549 C86.2570722,13.3151019 86.2689415,14.0895795 86.0882072,14.8667731 C85.8808472,15.7584468 85.4174737,16.491307 84.7247553,17.082206 C84.097393,17.61733 83.3705209,17.9700302 82.5900551,18.2184302 C81.8270405,18.4612912 81.0444361,18.598526 80.2460488,18.6626417 C77.7486397,18.8632009 75.3324765,18.5012619 72.9933034,17.6189553 C72.541671,17.4485933 72.1086658,17.2283375 71.6695015,17.0258322 C71.5546151,16.9728587 71.4488607,16.900103 71.3511474,16.8434939 C71.2822413,16.3484262 71.2961209,15.2943462 71.3785644,14.9884603 C71.4785019,15.0467161 71.5762793,15.0963747 71.6664005,15.1573252 C73.2369771,16.2198314 74.9666238,16.8818607 76.834532,17.1771177 C78.221423,17.3963256 79.614452,17.4238068 81.0048931,17.1950179 C81.5821478,17.1000207 82.1507197,16.9613957 82.6771609,16.698945 C82.9560147,16.5599137 83.2318531,16.4040516 83.4808306,16.2180349 C84.1285739,15.7340666 84.5067236,15.0743042 84.6023197,14.275703 C84.6458832,13.911989 84.6417985,13.5329625 84.592867,13.1698044 C84.5002009,12.4822615 84.1646951,11.9107383 83.6391308,11.4532032 C83.2701771,11.1320048 82.8512654,10.8931858 82.4056852,10.6976096 C81.6987664,10.3873181 80.9595331,10.1773918 80.2071046,10.0173165 C79.0935498,9.78042226 77.9754611,9.56495691 76.861286,9.3309284 C76.0530183,9.16114384 75.2543102,8.95448958 74.481351,8.65743612 C73.9878658,8.46778384 73.5137565,8.24085552 73.0758967,7.94331018 C71.9730135,7.19379018 71.3973842,6.15365394 71.3539062,4.81943691 C71.3351933,4.24494107 71.3881882,3.6839185 71.602627,3.14291335 C71.9066737,2.37570701 72.4221011,1.78350345 73.0897122,1.31422741 C73.8107886,0.807354535 74.6185217,0.498923644 75.4680005,0.289938297 C76.2880947,0.0881600792 77.1222183,0.0116618614 77.9657731,0.00171730693 C79.2519141,-0.0134454653 80.5271482,0.0640365149 81.7823862,0.368682059 Z M17.0338562,0.486192475 C17.0443141,0.56010297 17.0604178,0.640792871 17.0660424,0.722209901 C17.0719022,0.807241188 17.0678602,0.892999604 17.0678602,0.978437228 L17.067903,18.1943002 C16.8081255,18.3323905 16.5485406,18.2597846 16.2999695,18.269002 C16.0616851,18.2778131 15.819423,18.2938099 15.5574214,18.2363026 C15.5306887,17.7508586 15.5474127,17.2833362 15.5444186,16.8165624 C15.5414032,16.3466661 15.5437556,15.8767485 15.5437556,15.4068523 L15.5437556,6.94861307 C15.5437556,6.47869545 15.5444828,6.00879921 15.5435632,5.53890297 C15.5426436,5.07309149 15.5476907,4.6071303 15.5400772,4.1379398 C15.399442,4.1487398 15.3904812,4.24232554 15.3618665,4.31687762 L14.2617208,7.18683327 L14.2617208,7.18683327 C12.9102451,10.7224752 11.5594539,14.2583739 10.2076574,17.7938661 C10.152139,17.9390352 10.0888574,18.0812531 10.0335743,18.2143604 C9.70927485,18.2876935 8.72059366,18.2966329 8.24528673,18.229181 C7.86643129,17.3154582 7.52797426,16.3661061 7.16584277,15.4262495 C6.8077105,14.4967651 6.45665703,13.5645861 6.10239564,12.6336261 L5.02427762,9.80092515 L5.02427762,9.80092515 C4.66986653,8.87002931 4.3155196,7.93911208 3.96063802,7.00840871 C3.60156475,6.06671287 3.2418499,5.12525228 2.88681861,4.19516911 C2.77764238,4.18832554 2.76658574,4.2460895 2.76487485,4.3019501 C2.76004158,4.45843248 2.75854455,4.61506455 2.75852317,4.77163248 C2.75822376,9.07193584 2.75854455,13.3722606 2.75741109,17.6725853 C2.75736832,17.8545386 2.77804871,18.0396998 2.72691446,18.2103612 C2.36790535,18.2959057 1.60574614,18.2949648 1.27721228,18.2124143 C1.26690416,18.173962 1.24641624,18.1332 1.24639485,18.0924166 C1.24393545,12.2828507 1.24300538,6.47326337 1.24300538,0.66367604 C1.24300538,0.60912 1.25976119,0.554542574 1.27548,0.458369109 L3.04041386,0.458369109 C4.05820158,3.0878804 5.0613398,5.71854653 6.07305386,8.34589782 C7.08376277,10.9707042 8.08668713,13.5985687 9.13285426,16.3016697 C9.42274337,15.7126954 9.58929861,15.175219 9.79819842,14.6558566 C10.005259,14.1410495 10.1979909,13.6205109 10.396882,13.1024317 L11.0086111,11.5081164 L11.0086111,11.5081164 C11.2075022,10.9900372 11.4069065,10.4721291 11.6055838,9.95396436 C11.8093509,9.42249743 12.0123481,8.89073109 12.2159655,8.3592 C12.4196044,7.82766891 12.623564,7.29628752 12.8274594,6.76486337 L13.4239616,5.2105402 L13.4239616,5.2105402 C13.6280923,4.67920158 13.8327362,4.14805545 14.0368883,3.61671683 C14.2359291,3.0986804 14.4337723,2.58017347 14.6336899,2.06245782 C14.8380345,1.53325782 15.0442396,1.00478495 15.2438578,0.490897426 C15.6208954,0.428578218 16.6447996,0.426567921 17.0338562,0.486192475 Z M58.7243028,0.440766934 C59.4130862,0.439688317 60.0886101,0.51233703 60.7464691,0.71781505 C61.4923749,0.950795644 62.1564145,1.32492475 62.7063377,1.88695248 C63.4201856,2.61649782 63.812386,3.49754257 63.9295179,4.50538574 C64.0058664,5.16198297 63.9774228,5.81526535 63.8082371,6.45460396 C63.4154379,7.93873782 62.4818688,8.94348 61.0543654,9.48998139 C60.4795274,9.71004475 59.8800311,9.83181743 59.2627202,9.85224119 C59.0207789,9.86026099 58.778645,9.86558614 58.5365967,9.86571446 L55.7164306,9.86642287 L55.7164306,9.86642287 L52.4281594,9.86631327 C52.4216367,9.89274653 52.4151353,9.91915842 52.4086125,9.9455703 C52.4534592,9.97204634 52.4956113,10.0055798 52.5435804,10.0238222 C52.9025254,10.1604154 53.2608288,10.299019 53.6230672,10.4263949 C53.8135749,10.4933976 53.9850917,10.5853366 54.1464929,10.7066174 C57.3789436,13.1357192 60.6129555,15.5627251 63.8462402,17.9907362 C63.9239575,18.049099 63.9965848,18.1142198 64.1111076,18.2088321 C64.0033642,18.2383022 63.9426703,18.2690768 63.881784,18.2693976 C63.2123551,18.2730333 62.5428406,18.2654626 61.8735828,18.2760638 C61.6680406,18.2792352 61.5243258,18.1819925 61.3754141,18.0693731 C60.2852985,17.2448519 59.1941135,16.4218063 58.1032707,15.5982475 L50.6715448,9.98842812 L50.6715448,9.98842812 C50.5504565,9.89706653 50.4367678,9.79084158 50.2783392,9.72623406 C50.1924311,9.88194653 50.223441,10.0251267 50.2231416,10.1609287 L50.2214869,11.869053 L50.2214869,11.869053 L50.2217088,13.5771933 C50.2217088,14.9721683 50.222329,16.3671434 50.2207891,17.7621184 C50.2206181,17.9150935 50.2424961,18.0722816 50.1866783,18.2121042 C49.8392604,18.291682 49.0544533,18.2944408 48.6681983,18.2164028 C48.6599218,18.1442887 48.6463844,18.0637057 48.6425135,17.9826523 C48.6377872,17.8832281 48.6410165,17.783419 48.6410165,17.683781 L48.6409978,9.35662812 L48.6409978,9.35662812 L48.6409951,0.500489109 C48.7394141,0.478739406 48.8172169,0.454337822 48.8967305,0.445954455 C48.9812913,0.437057822 49.0674347,0.443024554 49.1528937,0.443024554 C52.3433634,0.442981782 55.5338331,0.445847525 58.7243028,0.440766934 Z M108.95416,0.476970772 C108.993638,0.936366416 108.982881,1.38470543 108.958651,1.85753156 C108.862007,1.86927255 108.781082,1.88573988 108.699793,1.88766463 C108.514675,1.89207018 108.329385,1.88946107 108.14416,1.88946107 L97.1585066,1.88988879 L97.1585066,1.88988879 C96.9899411,1.88991018 96.8213969,1.89581275 96.6598674,1.8988282 C96.5562302,2.0683775 96.5942333,2.22892325 96.5939339,2.38044404 L96.5917018,4.7513675 L96.5917018,4.7513675 L96.5919664,8.41779374 L96.5919664,8.41779374 C96.6932298,8.44114741 96.771503,8.46956958 96.8513803,8.47523691 C96.9789914,8.48432602 97.1076718,8.47859453 97.235903,8.47859453 C100.840793,8.47863731 104.445684,8.47853038 108.050574,8.47893671 C108.219781,8.4789581 108.38901,8.48344919 108.550218,8.48575889 C108.634009,8.79089632 108.646541,9.37324087 108.582939,9.88546028 C108.511723,9.89743651 108.432573,9.91830939 108.352568,9.9224583 C108.224678,9.929088 108.096191,9.924768 107.967981,9.924768 C104.363069,9.92481077 100.7582,9.92466107 97.1533098,9.92528127 C96.9851506,9.92530265 96.8169914,9.9321676 96.6511205,9.93580325 C96.561427,10.1088171 96.593827,10.2680797 96.5936345,10.4200924 L96.59179,13.2822955 L96.59179,13.2822955 L96.5919236,16.7558215 L96.5919236,16.7558215 C96.69169,16.7813779 96.7692147,16.813393 96.8485787,16.8189106 C96.9904116,16.8287696 97.1333565,16.8231878 97.2758524,16.8232092 C101.023196,16.8232947 104.77056,16.8228456 108.517925,16.8246207 C108.702231,16.8247062 108.886515,16.8442104 109.0708,16.8546896 L109.0708,18.2217557 L108.734722,18.2614769 C108.678709,18.2667997 108.622696,18.2703379 108.566686,18.2703878 L103.2876,18.2725344 L103.2876,18.2725344 L98.0084987,18.2725478 C97.1678524,18.2725478 96.3271846,18.2739165 95.4865383,18.2711149 C95.3469082,18.2706444 95.2005629,18.3017613 95.0496836,18.2039411 C95.0426048,18.1058001 95.0289391,17.9941217 95.0273137,17.8822508 C95.0082757,16.5719124 94.9986621,14.2983278 94.9968379,11.8181307 L94.9968376,10.0216358 C95.0000809,5.43324279 95.027555,0.75820451 95.0695728,0.479622653 C95.1432908,0.468373545 95.223831,0.450366416 95.3051838,0.445169584 C95.4045438,0.438817901 95.5045668,0.443009584 95.6043118,0.443009584 L108.427997,0.443800871 L108.427997,0.443800871 C108.595728,0.443843644 108.766197,0.426135921 108.95416,0.476970772 Z M30.562627,1.56965703 C28.1342951,2.10860911 26.344425,3.48880634 25.2575601,5.73978297 C24.7100108,6.87376158 24.4752979,8.08128713 24.482783,9.36794139 C24.478185,9.99459802 24.5309019,10.6464475 24.6846254,11.2859572 C25.325953,13.953985 26.8934928,15.8349386 29.4730246,16.8164768 C31.0312401,17.4093861 32.647583,17.482762 34.2631561,17.1021315 C36.685564,16.5313996 38.472825,15.1246194 39.4906341,12.8423549 C40.476749,10.6311778 40.5013858,8.36146693 39.6021201,6.11786851 C38.7433169,3.97521267 37.1756916,2.5406305 34.9858579,1.8012903 C33.5357708,1.31171881 32.0508884,1.23932673 30.562627,1.56965703 Z M50.256889,1.94172238 C50.2261253,2.18220813 50.2051789,3.94220599 50.2029176,5.59226383 L50.202835,6.10777969 C50.2037669,6.9545469 50.2101333,7.72334698 50.2232272,8.17661584 C50.2256224,8.2593802 50.2415337,8.34173822 50.2574878,8.47863089 L58.1525872,8.47858812 L58.1525872,8.47858812 C58.3661064,8.47858812 58.5798822,8.48476871 58.7930806,8.47617149 C59.4243567,8.45072198 60.0369626,8.33493743 60.6092129,8.05676792 C61.4801206,7.63342931 62.0431107,6.95518931 62.2715789,6.01030693 C62.3115282,5.84505624 62.3356517,5.6747798 62.3525254,5.50535881 C62.494123,4.08281703 61.8644509,2.80899446 60.4403052,2.2243402 C59.9619828,2.02797267 59.4649476,1.9171497 58.9482798,1.8961699 C58.8203266,1.89097307 58.6921381,1.88981822 58.5640779,1.88979683 C55.9450244,1.88943327 53.3259709,1.88866337 50.7069175,1.89172158 C50.5559313,1.89191406 50.3946585,1.84999723 50.256889,1.94172238 Z" id="Combined-Shape"></path>
                    </g>
                </g>
            </g>
        </g>
    </g>
</svg>